<svg width="35" height="38" viewBox="0 0 35 38" fill="none" xmlns="http://www.w3.org/2000/svg">
<path d="M26.2919 37.7061C26.6818 38.0972 27.315 38.0981 27.7061 37.7081L34.0793 31.3534C34.4703 30.9634 34.4713 30.3303 34.0813 29.9392C33.6913 29.5481 33.0582 29.5472 32.6671 29.9371L27.002 35.5858L21.3534 29.9207C20.9634 29.5297 20.3303 29.5287 19.9392 29.9187C19.5481 30.3087 19.5472 30.9418 19.9371 31.3329L26.2919 37.7061ZM1.49751 2.56475C2.04899 2.5945 2.52017 2.17155 2.54992 1.62007C2.57967 1.06859 2.15672 0.597406 1.60524 0.567657L1.55137 1.56621L1.49751 2.56475ZM4.7256 0.911738C4.18091 0.820473 3.66536 1.18805 3.5741 1.73274C3.48283 2.27743 3.85041 2.79298 4.3951 2.88424L4.56035 1.89799L4.7256 0.911738ZM7.23665 3.52719C7.76756 3.67936 8.3213 3.37232 8.47347 2.84141C8.62563 2.3105 8.31859 1.75676 7.78768 1.6046L7.51217 2.5659L7.23665 3.52719ZM10.7515 2.63893C10.2412 2.42774 9.65634 2.67023 9.44515 3.18054C9.23396 3.69085 9.47645 4.27575 9.98676 4.48693L10.3692 3.56293L10.7515 2.63893ZM12.6118 5.75131C13.095 6.01865 13.7035 5.8436 13.9708 5.36034C14.2382 4.87706 14.0631 4.26858 13.5799 4.00124L13.0958 4.87628L12.6118 5.75131ZM16.2368 5.67259C15.7866 5.35276 15.1623 5.45848 14.8425 5.90872C14.5226 6.35897 14.6283 6.98325 15.0786 7.30309L15.6577 6.48784L16.2368 5.67259ZM17.3565 9.12125C17.7683 9.48936 18.4004 9.45401 18.7685 9.04229C19.1367 8.63057 19.1013 7.99839 18.6896 7.63028L18.0231 8.37577L17.3565 9.12125ZM20.9086 9.84931C20.5405 9.43759 19.9083 9.40224 19.4966 9.77035C19.0849 10.1385 19.0495 10.7706 19.4176 11.1824L20.1631 10.5158L20.9086 9.84931ZM21.2358 13.4603C21.5556 13.9106 22.1799 14.0163 22.6302 13.6964C23.0804 13.3766 23.1861 12.7523 22.8663 12.3021L22.051 12.8812L21.2358 13.4603ZM24.5376 14.959C24.2703 14.4757 23.6618 14.3007 23.1786 14.568C22.6953 14.8354 22.5202 15.4439 22.7876 15.9271L23.6626 15.4431L24.5376 14.959ZM24.052 18.5521C24.2631 19.0624 24.848 19.3049 25.3583 19.0937C25.8687 18.8826 26.1111 18.2977 25.9 17.7874L24.976 18.1697L24.052 18.5521ZM26.9343 20.7512C26.7821 20.2203 26.2284 19.9133 25.6975 20.0654C25.1666 20.2176 24.8595 20.7713 25.0117 21.3022L25.973 21.0267L26.9343 20.7512ZM25.6546 24.1438C25.7459 24.6885 26.2614 25.0561 26.8061 24.9648C27.3508 24.8735 27.7184 24.358 27.6271 23.8133L26.6409 23.9785L25.6546 24.1438ZM27.9712 26.9336C27.9415 26.3822 27.4703 25.9592 26.9188 25.989C26.3673 26.0187 25.9444 26.4899 25.9741 27.0414L26.9727 26.9875L27.9712 26.9336ZM26.0092 30.6247C26.0084 31.177 26.4555 31.6253 27.0078 31.6261C27.5601 31.6269 28.0084 31.1799 28.0092 30.6276L27.0092 30.6261L26.0092 30.6247ZM28.0031 34.8768C28.0039 34.3245 27.5568 33.8762 27.0045 33.8754C26.4522 33.8746 26.0039 34.3216 26.0031 34.8739L27.0031 34.8754L28.0031 34.8768ZM0.0373906 1.52657L0.038839 2.52657C0.528437 2.52586 1.01478 2.53871 1.49751 2.56475L1.55137 1.56621L1.60524 0.567657C1.08569 0.539631 0.562456 0.525814 0.0359421 0.526576L0.0373906 1.52657ZM4.56035 1.89799L4.3951 2.88424C5.36154 3.04617 6.30976 3.26154 7.23665 3.52719L7.51217 2.5659L7.78768 1.6046C6.78869 1.31828 5.76685 1.0862 4.7256 0.911738L4.56035 1.89799ZM10.3692 3.56293L9.98676 4.48693C10.8884 4.86008 11.7646 5.28266 12.6118 5.75131L13.0958 4.87628L13.5799 4.00124C12.6672 3.49637 11.7232 3.04105 10.7515 2.63893L10.3692 3.56293ZM15.6577 6.48784L15.0786 7.30309C15.8721 7.86675 16.6326 8.47396 17.3565 9.12125L18.0231 8.37577L18.6896 7.63028C17.9101 6.9334 17.0913 6.27958 16.2368 5.67259L15.6577 6.48784ZM20.1631 10.5158L19.4176 11.1824C20.0649 11.9063 20.6721 12.6668 21.2358 13.4603L22.051 12.8812L22.8663 12.3021C22.2593 11.4476 21.6055 10.6288 20.9086 9.84931L20.1631 10.5158ZM23.6626 15.4431L22.7876 15.9271C23.2562 16.7743 23.6788 17.6505 24.052 18.5521L24.976 18.1697L25.9 17.7874C25.4978 16.8157 25.0425 15.8717 24.5376 14.959L23.6626 15.4431ZM25.973 21.0267L25.0117 21.3022C25.2773 22.2291 25.4927 23.1774 25.6546 24.1438L26.6409 23.9785L27.6271 23.8133C27.4527 22.772 27.2206 21.7502 26.9343 20.7512L25.973 21.0267ZM26.9727 26.9875L25.9741 27.0414C26.0002 27.5241 26.013 28.0104 26.0123 28.5L27.0123 28.5015L28.0123 28.5029C28.0131 27.9764 27.9992 27.4532 27.9712 26.9336L26.9727 26.9875ZM27.0123 28.5015L26.0123 28.5L26.0092 30.6247L27.0092 30.6261L28.0092 30.6276L28.0123 28.5029L27.0123 28.5015ZM27.0031 34.8754L26.0031 34.8739L26 36.9986L27 37L28 37.0014L28.0031 34.8768L27.0031 34.8754Z" fill="#0D2B61"/>
</svg>
